<svg xmlns="http://www.w3.org/2000/svg" width="980" height="440" viewBox="0 0 980 440">
<style>text{font-family:Arial,sans-serif;fill:#222}.t{font-size:24px;font-weight:700}.l{font-size:14px}.v{font-size:13px;fill:#555}</style>
<text class="t" x="24" y="36">In-Demand Skills Proxy (from available top-paying sample)</text>
<text class="l" x="16" y="86">sql</text>
<rect x="220" y="70" width="720.0" height="22" fill="#f28e2b" rx="4"/>
<text class="v" x="948.0" y="86">8 postings</text>
<text class="l" x="16" y="120">python</text>
<rect x="220" y="104" width="630.0" height="22" fill="#f28e2b" rx="4"/>
<text class="v" x="858.0" y="120">7 postings</text>
<text class="l" x="16" y="154">tableau</text>
<rect x="220" y="138" width="540.0" height="22" fill="#f28e2b" rx="4"/>
<text class="v" x="768.0" y="154">6 postings</text>
<text class="l" x="16" y="188">r</text>
<rect x="220" y="172" width="360.0" height="22" fill="#f28e2b" rx="4"/>
<text class="v" x="588.0" y="188">4 postings</text>
<text class="l" x="16" y="222">excel</text>
<rect x="220" y="206" width="270.0" height="22" fill="#f28e2b" rx="4"/>
<text class="v" x="498.0" y="222">3 postings</text>
<text class="l" x="16" y="256">pandas</text>
<rect x="220" y="240" width="270.0" height="22" fill="#f28e2b" rx="4"/>
<text class="v" x="498.0" y="256">3 postings</text>
<text class="l" x="16" y="290">snowflake</text>
<rect x="220" y="274" width="270.0" height="22" fill="#f28e2b" rx="4"/>
<text class="v" x="498.0" y="290">3 postings</text>
<text class="l" x="16" y="324">atlassian</text>
<rect x="220" y="308" width="180.0" height="22" fill="#f28e2b" rx="4"/>
<text class="v" x="408.0" y="324">2 postings</text>
<text class="l" x="16" y="358">aws</text>
<rect x="220" y="342" width="180.0" height="22" fill="#f28e2b" rx="4"/>
<text class="v" x="408.0" y="358">2 postings</text>
<text class="l" x="16" y="392">azure</text>
<rect x="220" y="376" width="180.0" height="22" fill="#f28e2b" rx="4"/>
<text class="v" x="408.0" y="392">2 postings</text>
</svg>